<?xml version="1.0" encoding="UTF-8" standalone="no"?>
<!-- Created with Inkscape (http://www.inkscape.org/) -->

<svg
   xmlns:dc="http://purl.org/dc/elements/1.1/"
   xmlns:cc="http://creativecommons.org/ns#"
   xmlns:rdf="http://www.w3.org/1999/02/22-rdf-syntax-ns#"
   xmlns:svg="http://www.w3.org/2000/svg"
   xmlns="http://www.w3.org/2000/svg"
   version="1.1"
   width="892.91339"
   height="278.1496"
   id="svg8629">
  <defs
     id="defs8631" />
  <metadata
     id="metadata8634">
    <rdf:RDF>
      <cc:Work
         rdf:about="">
        <dc:format>image/svg+xml</dc:format>
        <dc:type
           rdf:resource="http://purl.org/dc/dcmitype/StillImage" />
        <dc:title></dc:title>
      </cc:Work>
    </rdf:RDF>
  </metadata>
  <g
     transform="translate(41.700089,-212.40134)"
     id="layer1">
    <g
       transform="matrix(5.0668255,0,0,5.0668255,158.65365,-739.00263)"
       id="g8670">
      <g
         transform="matrix(1.25,0,0,-1.25,-22.601696,228.47745)"
         id="g8539">
        <path
           d="m 0,0 6.317,0 2.119,7.138 8.826,0 2.119,-7.138 6.49,0 -9.474,30.154 -6.533,0 L 0,0 z m 11.508,17.738 c 0.562,2.249 1.428,5.797 1.428,5.797 0,0 0.909,-3.938 1.211,-5.322 0.648,-2.899 1.644,-6.055 1.644,-6.055 l -5.883,0 c 0.648,1.989 1.037,3.416 1.6,5.58"
           id="path8541"
           style="fill:#1a65b7;fill-opacity:1;fill-rule:nonzero;stroke:none" />
      </g>
      <g
         transform="matrix(1.25,0,0,-1.25,11.399554,201.92494)"
         id="g8543">
        <path
           d="m 0,0 5.148,1.47 c 0.52,-0.908 0.823,-1.859 0.823,-2.768 1.341,0.951 1.601,1.125 2.553,1.644 1.168,0.606 2.682,0.952 3.979,0.952 2.468,0 4.63,-1.298 5.322,-3.202 0.303,-0.822 0.433,-1.773 0.433,-3.158 l 0,-16.18 -5.711,0 0,14.407 c 0,2.508 -0.433,3.244 -1.947,3.244 -1.168,0 -2.681,-0.779 -4.023,-1.989 l 0,-15.662 -5.798,0 0,16.05 C 0.779,-3.288 0.52,-1.471 0,0"
           id="path8545"
           style="fill:#1a65b7;fill-opacity:1;fill-rule:nonzero;stroke:none" />
      </g>
      <g
         transform="matrix(1.25,0,0,-1.25,59.732054,202.6287)"
         id="g8547">
        <path
           d="m 0,0 -1.904,-3.893 c -2.208,1.125 -3.807,1.601 -5.451,1.601 -1.689,0 -2.813,-0.866 -2.813,-2.163 0,-1.126 0.736,-1.731 2.769,-2.25 l 2.682,-0.692 c 2.725,-0.693 3.635,-1.515 4.413,-2.509 0.823,-1.039 1.212,-2.294 1.212,-3.764 0,-4.586 -3.807,-7.701 -9.475,-7.701 -2.726,0 -5.711,0.866 -8.955,2.552 l 2.076,4.24 c 1.774,-1.082 4.846,-2.509 7.355,-2.509 1.644,0 2.942,1.081 2.942,2.509 0,1.514 -1.082,2.293 -3.418,2.725 l -2.595,0.476 c -1.472,0.26 -3.289,1.298 -4.067,2.25 -0.779,0.952 -1.255,2.552 -1.255,3.98 0,4.327 3.418,7.225 8.565,7.225 C -4.37,2.077 -2.035,0.996 0,0"
           id="path8549"
           style="fill:#1a65b7;fill-opacity:1;fill-rule:nonzero;stroke:none" />
      </g>
      <g
         transform="matrix(1.25,0,0,-1.25,77.630804,223.8812)"
         id="g8551">
        <path
           d="m 0,0 c -2.985,0 -4.672,1.947 -4.672,5.365 l 0,0.173 12.805,0 0,1.341 c 0,4.629 -0.907,7.614 -2.942,9.691 -1.427,1.471 -3.85,2.336 -6.401,2.336 -2.943,0 -5.149,-0.952 -6.967,-2.986 -1.946,-2.163 -2.768,-4.801 -2.768,-8.781 0,-6.966 4.11,-11.465 10.469,-11.465 3.115,0 5.798,0.995 8.35,3.072 L 5.624,2.207 C 3.85,0.736 1.991,0 0,0 m -4.585,9.865 c 0,3.071 1.255,4.801 3.46,4.801 1.168,0 1.99,-0.432 2.552,-1.297 0.52,-0.822 0.693,-1.688 0.693,-3.332 l 0,-0.259 -6.705,0"
           id="path8553"
           style="fill:#1a65b7;fill-opacity:1;fill-rule:nonzero;stroke:none" />
      </g>
      <g
         transform="matrix(1.25,0,0,-1.25,99.474544,188.4587)"
         id="g8555">
        <path
           d="m 0,0 c 0.216,-1.212 0.303,-2.64 0.303,-5.755 l 0,-17.261 c 0,-3.808 0.043,-4.327 0.39,-4.932 0.215,-0.39 0.692,-0.605 1.168,-0.605 0.216,0 0.345,0 0.648,0.086 l 0.995,-3.462 c -0.995,-0.389 -2.205,-0.605 -3.46,-0.605 -2.467,0 -4.457,1.168 -5.149,3.028 -0.432,1.125 -0.52,1.818 -0.52,4.975 l 0,16.526 c 0,2.899 -0.086,4.673 -0.302,6.664"
           id="path8557"
           style="fill:#1a65b7;fill-opacity:1;fill-rule:nonzero;stroke:none" />
      </g>
      <g
         transform="matrix(1.25,0,0,-1.25,114.02204,188.4587)"
         id="g8559">
        <path
           d="m 0,0 c 0.216,-1.212 0.302,-2.64 0.302,-5.755 l 0,-17.261 c 0,-3.808 0.044,-4.327 0.39,-4.932 0.216,-0.39 0.692,-0.605 1.169,-0.605 0.215,0 0.345,0 0.648,0.086 l 0.995,-3.462 c -0.995,-0.389 -2.206,-0.605 -3.461,-0.605 -2.466,0 -4.457,1.168 -5.149,3.028 -0.433,1.125 -0.519,1.818 -0.519,4.975 l 0,16.526 c 0,2.899 -0.086,4.673 -0.302,6.664"
           id="path8561"
           style="fill:#1a65b7;fill-opacity:1;fill-rule:nonzero;stroke:none" />
      </g>
      <g
         transform="matrix(1.25,0,0,-1.25,-38.842946,240.56245)"
         id="g8563">
        <path
           d="m 0,0 0.025,-1.134 c 0,0 15.853,3.702 31.654,3.525 17.308,-0.19 47.105,-3.229 72.813,-2.886 21.947,0.298 35.371,7.601 35.371,7.601 l -0.004,0.885 c 0,0 -9.526,-3.444 -31.823,-3.342 C 82.82,4.764 63.909,8.099 37.053,6.723 14.335,5.562 0,0 0,0"
           id="path8565"
           style="fill:#19b19e;fill-opacity:1;fill-rule:nonzero;stroke:none" />
      </g>
    </g>
  </g>
</svg>
