<?xml version="1.0" encoding="UTF-8"?> <svg xmlns="http://www.w3.org/2000/svg" width="204" height="204" viewBox="0 0 204 204"><g fill="none" fill-rule="evenodd"><path fill="#FFF" d="M0 0H204V204H0z"></path><g fill="#000" fill-rule="nonzero"><path d="M50.325 48.562L47.667 48.562 47.667 37.894 43.819 37.894 43.819 35.606 54.169 35.606 54.169 37.894 50.325 37.894zM56.063 42.81c.14-1.255.757-2.01 1.917-2.01.792 0 1.762.469 1.903 2.01h-3.82zm3.712 2.935c-.234.666-.88 1.096-1.585 1.055-1.987 0-2.127-1.631-2.198-2.363h6.446v-.445c0-4.364-2.574-5.269-4.421-5.269-4.12 0-4.514 3.694-4.514 4.842 0 3.947 2.044 5.241 4.687 5.241 1.932.09 3.661-1.187 4.145-3.06h-2.56zM72.202 45.06c-.172 2.218-2.093 3.887-4.313 3.746-3.549 0-4.364-2.757-4.364-4.768 0-3.079 1.331-5.31 4.523-5.31 1.487 0 3.942.688 4.172 3.684h-2.526c-.104-.628-.492-1.617-1.646-1.547-1.556 0-1.963 1.58-1.963 2.766 0 1.035.037 3.093 1.912 3.093.909-.03 1.64-.755 1.68-1.664h2.525zM82.448 48.562H79.96V42.76c0-.704-.033-1.895-1.604-1.895-1.092 0-1.936.76-1.936 2.213v5.484h-2.489V35.606h2.49v4.627h.032c.534-.988 1.593-1.575 2.714-1.505 1.843 0 3.281 1.107 3.281 3.22v6.614zM93.272 48.562h-2.489V42.76c0-.704-.033-1.895-1.603-1.895-1.092 0-1.936.76-1.936 2.195v5.502h-2.49v-9.6h2.382v1.435h.033c.53-1.063 1.633-1.716 2.82-1.669 1.842 0 3.281 1.107 3.281 3.22l.002 6.614zM102.127 43.762c0 1.22-.352 2.898-2.274 2.898-1.922 0-2.273-1.68-2.273-2.898 0-1.217.356-2.897 2.273-2.897 1.917 0 2.274 1.683 2.274 2.897zm2.56 0c0-3.44-2.293-5.034-4.834-5.034-2.54 0-4.828 1.594-4.828 5.034 0 3.44 2.288 5.044 4.828 5.044 2.54 0 4.833-1.598 4.833-5.044zM106.472 35.606H108.957V48.562H106.472zM117.877 43.762c0 1.22-.357 2.898-2.274 2.898s-2.273-1.68-2.273-2.898c0-1.217.351-2.897 2.273-2.897 1.922 0 2.274 1.683 2.274 2.897zm2.554 0c0-3.44-2.287-5.034-4.828-5.034-2.54 0-4.833 1.594-4.833 5.034 0 3.44 2.293 5.044 4.833 5.044s4.828-1.598 4.828-5.044zM124.256 43.819c0-2.232 1.032-2.916 1.95-2.916 1.383 0 2.129 1.266 2.129 2.812 0 1.313-.427 2.775-2.11 2.775-1.472 0-1.969-1.443-1.969-2.671zm4.167-4.852v1.435h-.037c-.48-1.084-1.583-1.754-2.766-1.68-2.076 0-3.923 1.62-3.923 4.936 0 3.356 1.795 4.968 4.068 4.968 1.06.088 2.063-.488 2.52-1.448l.033.032v1.163c0 1.552-.637 2.203-1.969 2.203-1.434 0-1.631-.487-1.734-.975h-2.7c.103 2.034 2.166 2.88 4.116 2.88 4.654 0 4.781-2.751 4.781-4.416v-9.098h-2.389zM133.04 38.962H135.529V48.562000000000005H133.04zM133.04 35.465H135.529V37.818000000000005H133.04zM139.725 42.81c.14-1.255.76-2.01 1.92-2.01.788 0 1.758.469 1.898 2.01h-3.818zm3.713 2.935c-.234.666-.88 1.096-1.585 1.055-1.988 0-2.128-1.631-2.198-2.363h6.445v-.445c0-4.364-2.573-5.269-4.42-5.269-4.12 0-4.515 3.694-4.515 4.842 0 3.947 2.045 5.241 4.688 5.241 1.932.09 3.66-1.188 4.144-3.06h-2.56zM153.08 41.88c-.108-.61-.319-1.247-1.66-1.247-1.355 0-1.528.516-1.528.928 0 1.505 5.92.413 5.92 3.947 0 2.799-2.667 3.3-4.143 3.3-2.147 0-4.477-.755-4.547-3.319h2.56c0 .816.496 1.416 2.057 1.416 1.284 0 1.584-.638 1.584-.998 0-1.608-5.859-.399-5.859-3.99 0-1.397.867-3.192 3.811-3.192 1.838 0 4.036.464 4.228 3.155h-2.423zM48.53 26.756L49.725 26.756 57.295 4.856 57.488 4.298 58.083 4.298 60.853 4.298 61.547 4.298 61.673 4.978 65.7 26.475 67.181 26.475 74.485 4.312 74.672 3.74 75.272 3.74 94.265 3.74 94.265 0 70.603 0 67.439 9.497 66.038 0 53.785 0 50.456 9.98 48.985 0 44.072 0zM23.25 20.653c1.425-.014 10.158-.431 10.158-8.04 0-2.076-.54-3.632-1.608-4.612-1.002-.838-2.28-1.271-3.586-1.214l-.037.004H15.44L6.78 34.52h5.142l6.931-23.016h7.482c1.945 0 2.362 1.11 2.362 2.082 0 2.91-3.052 3.187-4.303 3.187-1.252 0-5.264.14-5.264.14l-2.911 9.703h6.375c1.664 0 6.375-.14 6.375 5.27 0 5.41-4.988 6.375-6.788 6.375H11.227l-1.13 4.02h12.78c2.597 0 11.086-.741 11.086-10.257 0-2.817-.844-5.072-2.508-6.703-3.147-3.073-8.235-3-8.285-3h-1.406v-1.667h1.486z" transform="translate(24 76)"></path><path d="M75.872 5.41L68.58 27.572l-.192.572H64.32l-.127-.684-4.029-21.498H58.68l-7.577 21.896-.192.557H47.12l-.113-.695L42.385 0h-5.372l1.059 6.42C35.606 1.889 30.544.835 27.586.835h-17.19L0 34.519h5.035l9.005-28.81.18-.58h13.886c1.75-.091 3.468.493 4.8 1.63 1.434 1.313 2.166 3.281 2.166 5.855 0 5.114-3.337 7.72-6.872 8.892 1.644.536 3.148 1.429 4.406 2.614 2.007 1.96 3.019 4.62 3.019 7.903 0 11.344-10.62 11.916-12.75 11.916H9.623l-1.448 5.133h14.972C35.072 49.073 40.2 40.06 40.2 32.58s-3.74-10.95-3.74-10.95 2.465-1.81 2.953-7.027l3.145 19.082H54.06l4.02-10.95 1.805 10.809h11.779l7.768-22.87h14.83V5.41h-18.39z" transform="translate(24 76)"></path></g></g></svg> 